<svg xmlns="http://www.w3.org/2000/svg" viewBox="0 0 60 60" width="30" height="30"><g fill="#FFF"><path id="dialog" d="M42 15.5H5.93C2.66 15.5 0 18.16 0 21.429V42.57c0 3.27 2.66 5.93 5.93 5.93H12v10a1 1 0 0 0 1.74.673L23.442 48.5H42c3.27 0 5.93-2.66 5.93-5.929V21.43c0-3.27-2.66-5.93-5.93-5.93z"/><path d="M54.072.57L19.93.5C16.66.5 14 3.16 14 6.43v6.122a1 1 0 0 0 1 1h.002L40.07 13.5c8.951 0 9.93 2.021 9.93 7.93v21.141c0 .091-.01.181-.014.271l1.274 1.401A1 1 0 0 0 53 43.57v-10h1.07c3.27 0 5.93-2.66 5.93-5.929V6.5C60 3.23 57.34.57 54.072.57z"/></g></svg>