<svg xmlns="http://www.w3.org/2000/svg" viewBox="0 0 416 416" width="30" height="30"><path d="M161.498 320c-27.2 0-48 20.8-48 48s20.8 48 48 48 48-20.8 48-48-20.8-48-48-48zm0 70.4c-12.8 0-22.4-9.6-22.4-22.4s9.6-22.4 22.4-22.4 22.4 9.6 22.4 22.4-9.6 22.4-22.4 22.4zM321.498 320c-27.2 0-48 20.8-48 48s20.8 48 48 48 48-20.8 48-48-20.8-48-48-48zm0 70.4c-12.8 0-22.4-9.6-22.4-22.4s9.6-22.4 22.4-22.4 22.4 9.6 22.4 22.4-9.6 22.4-22.4 22.4zM382.298 64h-273.6l-27.2-64h-64v32h43.2l67.2 163.2c-19.2 8-32 27.2-30.4 49.6 3.2 25.6 25.6 43.2 49.6 43.2h222.4v-32h-224c-9.6 0-16-6.4-16-16s6.4-16 16-16h211.2c8 0 14.4-4.8 16-12.8l25.6-128c1.6-9.6-6.4-19.2-16-19.2z" fill="#FFF"/></svg>