<svg xmlns="http://www.w3.org/2000/svg" viewBox="0 0 22.728 22.728" width="30" height="30"><path d="M12.573 4.94V0H9.385c-.072.183-.11.4-.11.622-.034.107-.072.184-.072.293-.328 1.829-1.28 3.11-2.892 3.807-.476.218-.914.253-1.39.218v3.987h2.342c.039 5.603.039 8.493.039 8.64v.332c.294 2.449 1.573 3.914 3.843 4.463.914.257 1.901.366 2.892.366a13.371 13.371 0 0 0 3.771-.659v-4.685c-.731.22-1.395.402-1.977.583-1.135.333-2.087.113-2.857-.619-.073-.11-.183-.257-.221-.403a10.273 10.273 0 0 1-.178-1.795V8.928h5.083V4.94h-5.085z" fill="#FFF"/></svg>